<svg xmlns="http://www.w3.org/2000/svg" viewBox="0 0 300 200" fill="none">
  <!-- Document/page shape -->
  <rect x="40" y="30" width="220" height="140" rx="8" fill="#FAFAFC" stroke="#EDE8F5" stroke-width="1"/>
  <!-- Image placeholder -->
  <rect x="55" y="45" width="90" height="60" rx="6" fill="#EDE8F5"/>
  <rect x="70" y="60" width="30" height="20" rx="2" fill="#7C5CFC" opacity="0.3"/>
  <rect x="105" y="60" width="30" height="20" rx="2" fill="#6AC8C6" opacity="0.3"/>
  <!-- Text lines -->
  <rect x="160" y="50" width="80" height="6" rx="2" fill="#7C5CFC" opacity="0.6"/>
  <rect x="160" y="65" width="60" height="5" rx="2" fill="#6B7280" opacity="0.5"/>
  <rect x="55" y="120" width="200" height="5" rx="2" fill="#6B7280" opacity="0.4"/>
  <rect x="55" y="132" width="180" height="5" rx="2" fill="#6B7280" opacity="0.4"/>
  <rect x="55" y="144" width="190" height="5" rx="2" fill="#6B7280" opacity="0.4"/>
  <!-- Pen/pencil icon -->
  <path d="M 230 155 L 255 130 L 265 140 L 240 165 Z" fill="#7C5CFC" opacity="0.8"/>
  <rect x="252" y="138" width="4" height="35" rx="2" fill="#6AC8C6" opacity="0.8" transform="rotate(-45 254 155)"/>
  <path d="M 228 157 L 238 167" stroke="#8FBC8F" stroke-width="2" stroke-linecap="round" opacity="0.7"/>
</svg>
