<svg xmlns="http://www.w3.org/2000/svg" viewBox="0 0 400 280" fill="none">
  <!-- Flow box 1: Gear (setup) -->
  <rect x="40" y="100" width="100" height="80" rx="12" fill="#EDE8F5" opacity="0.9"/>
  <circle cx="90" cy="130" r="20" fill="none" stroke="#7C5CFC" stroke-width="4"/>
  <circle cx="90" cy="130" r="8" fill="#7C5CFC"/>
  <rect x="85" y="108" width="10" height="8" rx="2" fill="#7C5CFC"/>
  <rect x="85" y="144" width="10" height="8" rx="2" fill="#7C5CFC"/>
  <rect x="72" y="125" width="8" height="10" rx="2" fill="#7C5CFC"/>
  <rect x="100" y="125" width="8" height="10" rx="2" fill="#7C5CFC"/>
  <!-- Arrow 1 -->
  <path d="M150 140 L190 140" stroke="#6B7280" stroke-width="2" opacity="0.6"/>
  <path d="M180 135 L190 140 L180 145" fill="#6B7280" opacity="0.6"/>
  <!-- Flow box 2: Chart (analyze) -->
  <rect x="200" y="100" width="80" height="80" rx="12" fill="#EDE8F5" opacity="0.9"/>
  <rect x="215" y="145" width="12" height="25" rx="3" fill="#6AC8C6" opacity="0.8"/>
  <rect x="232" y="130" width="12" height="40" rx="3" fill="#6AC8C6" opacity="0.8"/>
  <rect x="249" y="115" width="12" height="55" rx="3" fill="#6AC8C6" opacity="0.8"/>
  <rect x="266" y="125" width="12" height="45" rx="3" fill="#7C5CFC" opacity="0.8"/>
  <!-- Arrow 2 -->
  <path d="M290 140 L330 140" stroke="#6B7280" stroke-width="2" opacity="0.6"/>
  <path d="M320 135 L330 140 L320 145" fill="#6B7280" opacity="0.6"/>
  <!-- Flow box 3: Checkmark (execute) -->
  <rect x="340" y="100" width="50" height="80" rx="12" fill="#EDE8F5" opacity="0.9"/>
  <path d="M355 140 L365 150 L385 120" stroke="#8FBC8F" stroke-width="6" stroke-linecap="round" stroke-linejoin="round"/>
</svg>
