<svg xmlns="http://www.w3.org/2000/svg" viewBox="0 0 280 240" fill="none">
  <!-- Bar charts behind figure -->
  <rect x="180" y="120" width="24" height="60" rx="4" fill="#6AC8C6" opacity="0.9"/>
  <rect x="210" y="100" width="24" height="80" rx="4" fill="#6AC8C6" opacity="0.9"/>
  <rect x="240" y="80" width="24" height="100" rx="4" fill="#6AC8C6" opacity="0.9"/>
  <!-- Upward arrow -->
  <path d="M200 95 L185 75 L195 75 L195 60 L205 60 L205 75 L215 75 Z" fill="#6AC8C6" opacity="0.9"/>
  <!-- Laptop base -->
  <rect x="60" y="160" width="120" height="12" rx="4" fill="#1A1A2E"/>
  <rect x="65" y="95" width="110" height="65" rx="6" fill="#1A1A2E"/>
  <rect x="70" y="100" width="100" height="55" rx="4" fill="#EDE8F5" opacity="0.6"/>
  <!-- Screen content lines -->
  <rect x="80" y="115" width="60" height="4" rx="2" fill="#6B7280" opacity="0.5"/>
  <rect x="80" y="125" width="80" height="4" rx="2" fill="#6B7280" opacity="0.5"/>
  <rect x="80" y="135" width="50" height="4" rx="2" fill="#6B7280" opacity="0.5"/>
  <!-- Body -->
  <rect x="105" y="115" width="50" height="55" rx="8" fill="#7C5CFC"/>
  <!-- Head -->
  <circle cx="130" cy="95" r="18" fill="#EDE8F5"/>
</svg>
