<svg xmlns="http://www.w3.org/2000/svg" viewBox="0 0 300 240" fill="none">
  <!-- Gift box base -->
  <rect x="80" y="100" width="140" height="100" rx="8" fill="#EDE8F5"/>
  <rect x="80" y="100" width="140" height="100" rx="8" fill="#7C5CFC" opacity="0.15"/>
  <!-- Gift box lid -->
  <rect x="70" y="85" width="160" height="25" rx="6" fill="#7C5CFC" opacity="0.9"/>
  <!-- Bow -->
  <ellipse cx="150" cy="95" rx="25" ry="12" fill="#7C5CFC"/>
  <ellipse cx="125" cy="100" rx="15" ry="20" fill="#7C5CFC" opacity="0.9"/>
  <ellipse cx="175" cy="100" rx="15" ry="20" fill="#7C5CFC" opacity="0.9"/>
  <circle cx="150" cy="95" r="8" fill="#7C5CFC" opacity="0.8"/>
  <!-- Confetti - circles -->
  <circle cx="60" cy="60" r="6" fill="#6AC8C6" opacity="0.8"/>
  <circle cx="240" cy="50" r="5" fill="#8FBC8F" opacity="0.8"/>
  <circle cx="50" cy="180" r="4" fill="#6AC8C6" opacity="0.7"/>
  <circle cx="250" cy="190" r="5" fill="#7C5CFC" opacity="0.5"/>
  <circle cx="100" cy="40" r="4" fill="#8FBC8F" opacity="0.7"/>
  <circle cx="200" cy="35" r="5" fill="#6AC8C6" opacity="0.6"/>
  <circle cx="220" cy="210" r="4" fill="#8FBC8F" opacity="0.6"/>
  <!-- Confetti - stars -->
  <path d="M 150 30 L 152 36 L 158 36 L 153 40 L 155 46 L 150 42 L 145 46 L 147 40 L 142 36 L 148 36 Z" fill="#7C5CFC" opacity="0.6"/>
  <path d="M 90 150 L 92 154 L 96 154 L 93 157 L 94 161 L 90 159 L 86 161 L 87 157 L 84 154 L 88 154 Z" fill="#6AC8C6" opacity="0.7"/>
  <path d="M 210 120 L 211 123 L 214 123 L 212 125 L 213 128 L 210 126 L 207 128 L 208 125 L 206 123 L 209 123 Z" fill="#8FBC8F" opacity="0.7"/>
</svg>
